<mxfile host="65bd71144e">
    <diagram id="5E6ER-FBMFMYUhLT-jI8" name="Page-1">
        <mxGraphModel dx="1489" dy="780" grid="1" gridSize="10" guides="1" tooltips="1" connect="1" arrows="1" fold="1" page="1" pageScale="1" pageWidth="1169" pageHeight="1654" math="0" shadow="0">
            <root>
                <mxCell id="0"/>
                <mxCell id="1" parent="0"/>
                <mxCell id="10" style="edgeStyle=none;html=1;exitX=1;exitY=1;exitDx=0;exitDy=0;entryX=1;entryY=0.75;entryDx=0;entryDy=0;" parent="1" edge="1">
                    <mxGeometry relative="1" as="geometry">
                        <mxPoint x="190" y="80" as="sourcePoint"/>
                        <mxPoint x="190" y="72.5" as="targetPoint"/>
                    </mxGeometry>
                </mxCell>
                <mxCell id="52" value="" style="group" parent="1" vertex="1" connectable="0">
                    <mxGeometry x="340" y="200" width="430" height="520" as="geometry"/>
                </mxCell>
                <mxCell id="91" value="AWS Cloud" style="rounded=0;whiteSpace=wrap;html=1;verticalAlign=top;" parent="52" vertex="1">
                    <mxGeometry x="-340" y="-100" width="770" height="620" as="geometry"/>
                </mxCell>
                <mxCell id="4" value="Node JS" style="rounded=1;whiteSpace=wrap;html=1;verticalAlign=top;" parent="52" vertex="1">
                    <mxGeometry x="-110" width="300" height="388.2352941176471" as="geometry"/>
                </mxCell>
                <mxCell id="35" value="Bot" style="rounded=1;whiteSpace=wrap;html=1;verticalAlign=top;" parent="52" vertex="1">
                    <mxGeometry x="-110" y="35.29" width="300" height="354.71" as="geometry"/>
                </mxCell>
                <mxCell id="101" value="" style="group" parent="52" vertex="1" connectable="0">
                    <mxGeometry x="-80" y="100" width="240" height="270.5882352941177" as="geometry"/>
                </mxCell>
                <mxCell id="99" value="Control Centre" style="rounded=1;whiteSpace=wrap;html=1;verticalAlign=top;" parent="101" vertex="1">
                    <mxGeometry y="23.529411764705884" width="240" height="247.05882352941177" as="geometry"/>
                </mxCell>
                <mxCell id="36" value="Task Coodinator - Temporal" style="rounded=1;whiteSpace=wrap;html=1;verticalAlign=top;" parent="101" vertex="1">
                    <mxGeometry y="58.82" width="240" height="211.18" as="geometry"/>
                </mxCell>
                <mxCell id="37" value="Workflow" style="rounded=1;whiteSpace=wrap;html=1;verticalAlign=top;" parent="101" vertex="1">
                    <mxGeometry x="30" y="94.12" width="180" height="165.88" as="geometry"/>
                </mxCell>
                <mxCell id="40" value="Activity 1 (Action)" style="rounded=1;whiteSpace=wrap;html=1;" parent="101" vertex="1">
                    <mxGeometry x="45" y="129.99941176470588" width="150" height="32.35294117647059" as="geometry"/>
                </mxCell>
                <mxCell id="75" value="Activity 2 (Action)" style="rounded=1;whiteSpace=wrap;html=1;" parent="101" vertex="1">
                    <mxGeometry x="45" y="165.29352941176472" width="150" height="32.35294117647059" as="geometry"/>
                </mxCell>
                <mxCell id="76" value="Activity (Action)" style="rounded=1;whiteSpace=wrap;html=1;" parent="101" vertex="1">
                    <mxGeometry x="45" y="200.58764705882353" width="150" height="32.35294117647059" as="geometry"/>
                </mxCell>
                <mxCell id="97" value="User &amp;amp; Wallet Generation" style="rounded=1;whiteSpace=wrap;html=1;" parent="52" vertex="1">
                    <mxGeometry x="-50" y="70.58823529411765" width="180" height="47.05882352941177" as="geometry"/>
                </mxCell>
                <mxCell id="48" value="" style="group" parent="52" vertex="1" connectable="0">
                    <mxGeometry x="300" y="300" width="110" height="190" as="geometry"/>
                </mxCell>
                <mxCell id="2" value="Database" style="shape=cylinder3;whiteSpace=wrap;html=1;boundedLbl=1;backgroundOutline=1;size=15;verticalAlign=top;" parent="48" vertex="1">
                    <mxGeometry width="109.99999999999999" height="190" as="geometry"/>
                </mxCell>
                <mxCell id="77" value="Users" style="rounded=0;whiteSpace=wrap;html=1;" parent="48" vertex="1">
                    <mxGeometry x="20.340000000000003" y="60" width="70" height="30" as="geometry"/>
                </mxCell>
                <mxCell id="82" value="Web3 Actions" style="rounded=0;whiteSpace=wrap;html=1;" parent="48" vertex="1">
                    <mxGeometry x="20" y="100" width="70" height="70" as="geometry"/>
                </mxCell>
                <mxCell id="f7uIgDIJYOOdHVVSXS2l-126" style="edgeStyle=none;html=1;exitX=1;exitY=0.5;exitDx=0;exitDy=0;entryX=0;entryY=0.5;entryDx=0;entryDy=0;fillColor=#dae8fc;strokeColor=#6c8ebf;gradientColor=#7ea6e0;" parent="52" source="97" target="77" edge="1">
                    <mxGeometry relative="1" as="geometry">
                        <mxPoint x="400" y="170" as="targetPoint"/>
                        <Array as="points">
                            <mxPoint x="280" y="94"/>
                            <mxPoint x="280" y="230"/>
                            <mxPoint x="280" y="375"/>
                        </Array>
                    </mxGeometry>
                </mxCell>
                <mxCell id="f7uIgDIJYOOdHVVSXS2l-141" style="edgeStyle=none;html=1;exitX=0;exitY=1;exitDx=0;exitDy=0;entryX=1;entryY=0.75;entryDx=0;entryDy=0;fillColor=#f8cecc;strokeColor=#b85450;gradientColor=#ea6b66;" parent="52" source="82" target="76" edge="1">
                    <mxGeometry relative="1" as="geometry">
                        <Array as="points">
                            <mxPoint x="220" y="470"/>
                            <mxPoint x="220" y="325"/>
                        </Array>
                    </mxGeometry>
                </mxCell>
                <mxCell id="f7uIgDIJYOOdHVVSXS2l-140" style="edgeStyle=none;html=1;exitX=1;exitY=0.25;exitDx=0;exitDy=0;entryX=0;entryY=0.75;entryDx=0;entryDy=0;fillColor=#dae8fc;strokeColor=#6c8ebf;gradientColor=#7ea6e0;" parent="52" source="76" target="82" edge="1">
                    <mxGeometry relative="1" as="geometry">
                        <Array as="points">
                            <mxPoint x="230" y="309"/>
                            <mxPoint x="230" y="453"/>
                        </Array>
                    </mxGeometry>
                </mxCell>
                <mxCell id="f7uIgDIJYOOdHVVSXS2l-139" style="edgeStyle=none;html=1;exitX=-0.031;exitY=0.668;exitDx=0;exitDy=0;entryX=1;entryY=0.75;entryDx=0;entryDy=0;exitPerimeter=0;fillColor=#f8cecc;strokeColor=#b85450;gradientColor=#ea6b66;" parent="52" source="82" target="75" edge="1">
                    <mxGeometry relative="1" as="geometry">
                        <Array as="points">
                            <mxPoint x="240" y="447"/>
                            <mxPoint x="240" y="290"/>
                        </Array>
                    </mxGeometry>
                </mxCell>
                <mxCell id="f7uIgDIJYOOdHVVSXS2l-138" style="edgeStyle=none;html=1;exitX=0;exitY=0.25;exitDx=0;exitDy=0;entryX=1;entryY=0.75;entryDx=0;entryDy=0;fillColor=#f8cecc;strokeColor=#b85450;gradientColor=#ea6b66;" parent="52" source="82" target="40" edge="1">
                    <mxGeometry relative="1" as="geometry">
                        <mxPoint x="120" y="250" as="targetPoint"/>
                        <Array as="points">
                            <mxPoint x="260" y="418"/>
                            <mxPoint x="260" y="254"/>
                        </Array>
                    </mxGeometry>
                </mxCell>
                <mxCell id="f7uIgDIJYOOdHVVSXS2l-135" style="edgeStyle=none;html=1;exitX=1;exitY=0.25;exitDx=0;exitDy=0;entryX=0;entryY=0;entryDx=0;entryDy=0;fillColor=#dae8fc;strokeColor=#6c8ebf;gradientColor=#7ea6e0;" parent="52" source="40" target="82" edge="1">
                    <mxGeometry relative="1" as="geometry">
                        <Array as="points">
                            <mxPoint x="270" y="240"/>
                            <mxPoint x="270" y="400"/>
                        </Array>
                    </mxGeometry>
                </mxCell>
                <mxCell id="f7uIgDIJYOOdHVVSXS2l-137" style="edgeStyle=none;html=1;exitX=1;exitY=0.25;exitDx=0;exitDy=0;entryX=0;entryY=0.5;entryDx=0;entryDy=0;fillColor=#dae8fc;strokeColor=#6c8ebf;gradientColor=#7ea6e0;" parent="52" source="75" target="82" edge="1">
                    <mxGeometry relative="1" as="geometry">
                        <Array as="points">
                            <mxPoint x="250" y="273"/>
                            <mxPoint x="250" y="435"/>
                        </Array>
                    </mxGeometry>
                </mxCell>
                <mxCell id="f7uIgDIJYOOdHVVSXS2l-142" value="" style="group" parent="52" vertex="1" connectable="0">
                    <mxGeometry x="-330" y="-90" width="100" height="110" as="geometry"/>
                </mxCell>
                <mxCell id="f7uIgDIJYOOdHVVSXS2l-112" value="Front-end&lt;br&gt;UI&lt;br&gt;React JS&lt;br&gt;" style="rounded=1;whiteSpace=wrap;html=1;" parent="f7uIgDIJYOOdHVVSXS2l-142" vertex="1">
                    <mxGeometry width="100" height="50.76923076923077" as="geometry"/>
                </mxCell>
                <mxCell id="8" value="User" style="shape=umlActor;verticalLabelPosition=bottom;verticalAlign=top;html=1;outlineConnect=0;" parent="f7uIgDIJYOOdHVVSXS2l-142" vertex="1">
                    <mxGeometry x="37.5" y="59.230769230769226" width="25" height="50.76923076923077" as="geometry"/>
                </mxCell>
                <mxCell id="f7uIgDIJYOOdHVVSXS2l-118" style="edgeStyle=none;html=1;entryX=0;entryY=0.5;entryDx=0;entryDy=0;fillColor=#dae8fc;strokeColor=#6c8ebf;gradientColor=#7ea6e0;" parent="52" source="8" target="97" edge="1">
                    <mxGeometry relative="1" as="geometry">
                        <mxPoint x="-250" y="94" as="sourcePoint"/>
                        <Array as="points">
                            <mxPoint x="-190" y="-5"/>
                            <mxPoint x="-190" y="40"/>
                            <mxPoint x="-190" y="94"/>
                        </Array>
                    </mxGeometry>
                </mxCell>
                <mxCell id="111" value="" style="group" parent="1" vertex="1" connectable="0">
                    <mxGeometry x="830" y="30" width="150" height="430" as="geometry"/>
                </mxCell>
                <mxCell id="110" value="Blockchain" style="rounded=0;whiteSpace=wrap;html=1;verticalAlign=top;" parent="111" vertex="1">
                    <mxGeometry width="150" height="430" as="geometry"/>
                </mxCell>
                <mxCell id="22" value="EIP-4626 Vault" style="shape=cube;whiteSpace=wrap;html=1;boundedLbl=1;backgroundOutline=1;darkOpacity=0.05;darkOpacity2=0.1;" parent="111" vertex="1">
                    <mxGeometry x="15" y="49.99851851851852" width="120" height="90.93777777777778" as="geometry"/>
                </mxCell>
                <mxCell id="f7uIgDIJYOOdHVVSXS2l-128" style="edgeStyle=none;html=1;entryX=0.703;entryY=0.998;entryDx=0;entryDy=0;entryPerimeter=0;fillColor=#dae8fc;strokeColor=#6c8ebf;gradientColor=#7ea6e0;" parent="111" target="22" edge="1">
                    <mxGeometry relative="1" as="geometry">
                        <mxPoint x="99" y="240" as="sourcePoint"/>
                    </mxGeometry>
                </mxCell>
                <mxCell id="f7uIgDIJYOOdHVVSXS2l-120" value="Wallet" style="rounded=0;whiteSpace=wrap;html=1;" parent="111" vertex="1">
                    <mxGeometry x="20" y="240.59" width="110" height="49.33" as="geometry"/>
                </mxCell>
                <mxCell id="f7uIgDIJYOOdHVVSXS2l-121" value="Transactions" style="rounded=0;whiteSpace=wrap;html=1;" parent="111" vertex="1">
                    <mxGeometry x="15" y="330" width="120" height="86.33333333333334" as="geometry"/>
                </mxCell>
                <mxCell id="107" value="token" style="shape=process;whiteSpace=wrap;html=1;backgroundOutline=1;" parent="111" vertex="1">
                    <mxGeometry x="30" y="180" width="50" height="19.41" as="geometry"/>
                </mxCell>
                <mxCell id="f7uIgDIJYOOdHVVSXS2l-129" value="" style="endArrow=classic;html=1;fillColor=#f8cecc;strokeColor=#b85450;gradientColor=#ea6b66;" parent="111" target="107" edge="1">
                    <mxGeometry width="50" height="50" relative="1" as="geometry">
                        <mxPoint x="55" y="140" as="sourcePoint"/>
                        <mxPoint x="-350" y="260" as="targetPoint"/>
                    </mxGeometry>
                </mxCell>
                <mxCell id="f7uIgDIJYOOdHVVSXS2l-131" value="" style="endArrow=classic;html=1;exitX=0.5;exitY=1;exitDx=0;exitDy=0;fillColor=#f8cecc;strokeColor=#b85450;gradientColor=#ea6b66;" parent="111" source="107" edge="1">
                    <mxGeometry width="50" height="50" relative="1" as="geometry">
                        <mxPoint x="-400" y="310" as="sourcePoint"/>
                        <mxPoint x="55" y="240" as="targetPoint"/>
                    </mxGeometry>
                </mxCell>
                <mxCell id="f7uIgDIJYOOdHVVSXS2l-134" style="edgeStyle=none;html=1;exitX=0;exitY=0.75;exitDx=0;exitDy=0;entryX=1;entryY=0.75;entryDx=0;entryDy=0;fillColor=#f8cecc;strokeColor=#b85450;gradientColor=#ea6b66;" parent="1" source="f7uIgDIJYOOdHVVSXS2l-120" target="77" edge="1">
                    <mxGeometry relative="1" as="geometry">
                        <Array as="points">
                            <mxPoint x="820" y="308"/>
                            <mxPoint x="820" y="480"/>
                            <mxPoint x="930" y="480"/>
                            <mxPoint x="930" y="583"/>
                        </Array>
                    </mxGeometry>
                </mxCell>
                <mxCell id="f7uIgDIJYOOdHVVSXS2l-133" style="edgeStyle=none;html=1;exitX=1;exitY=0.5;exitDx=0;exitDy=0;entryX=0;entryY=0.25;entryDx=0;entryDy=0;fillColor=#dae8fc;strokeColor=#6c8ebf;gradientColor=#7ea6e0;" parent="1" source="77" target="f7uIgDIJYOOdHVVSXS2l-120" edge="1">
                    <mxGeometry relative="1" as="geometry">
                        <Array as="points">
                            <mxPoint x="920" y="575"/>
                            <mxPoint x="920" y="490"/>
                            <mxPoint x="800" y="490"/>
                            <mxPoint x="800" y="340"/>
                            <mxPoint x="800" y="283"/>
                        </Array>
                    </mxGeometry>
                </mxCell>
                <mxCell id="f7uIgDIJYOOdHVVSXS2l-144" value="" style="endArrow=classic;html=1;exitX=1;exitY=0.5;exitDx=0;exitDy=0;entryX=0.75;entryY=1;entryDx=0;entryDy=0;fillColor=#dae8fc;strokeColor=#6c8ebf;gradientColor=#7ea6e0;" parent="1" source="82" target="f7uIgDIJYOOdHVVSXS2l-121" edge="1">
                    <mxGeometry width="50" height="50" relative="1" as="geometry">
                        <mxPoint x="390" y="390" as="sourcePoint"/>
                        <mxPoint x="440" y="340" as="targetPoint"/>
                        <Array as="points">
                            <mxPoint x="935" y="635"/>
                        </Array>
                    </mxGeometry>
                </mxCell>
                <mxCell id="f7uIgDIJYOOdHVVSXS2l-145" style="edgeStyle=none;html=1;exitX=0;exitY=0.5;exitDx=0;exitDy=0;entryX=0.987;entryY=0.057;entryDx=0;entryDy=0;entryPerimeter=0;fillColor=#f8cecc;strokeColor=#b85450;gradientColor=#ea6b66;" parent="1" source="f7uIgDIJYOOdHVVSXS2l-121" target="37" edge="1">
                    <mxGeometry relative="1" as="geometry"/>
                </mxCell>
            </root>
        </mxGraphModel>
    </diagram>
    <diagram id="HHZd13YopMtSy9-0Wg6L" name="Page-2">
        <mxGraphModel dx="634" dy="475" grid="1" gridSize="10" guides="1" tooltips="1" connect="1" arrows="1" fold="1" page="1" pageScale="1" pageWidth="827" pageHeight="1169" math="0" shadow="0">
            <root>
                <mxCell id="0"/>
                <mxCell id="1" parent="0"/>
            </root>
        </mxGraphModel>
    </diagram>
</mxfile>